<?xml version="1.0" encoding="UTF-8" standalone="no"?>
<svg
   xmlns:dc="http://purl.org/dc/elements/1.1/"
   xmlns:cc="http://creativecommons.org/ns#"
   xmlns:rdf="http://www.w3.org/1999/02/22-rdf-syntax-ns#"
   xmlns:svg="http://www.w3.org/2000/svg"
   xmlns="http://www.w3.org/2000/svg"
   xmlns:sodipodi="http://sodipodi.sourceforge.net/DTD/sodipodi-0.dtd"
   xmlns:inkscape="http://www.inkscape.org/namespaces/inkscape"
   width="8.2179585mm"
   height="13.277009mm"
   viewBox="0 0 8.2179585 13.277009"
   version="1.1"
   id="svg67"
   inkscape:version="1.0.1 (3bc2e813f5, 2020-09-07)"
   sodipodi:docname="icon_Mute.svg">
  <defs
     id="defs61" />
  <sodipodi:namedview
     id="base"
     pagecolor="#000000"
     bordercolor="#666666"
     borderopacity="1.0"
     inkscape:pageopacity="0"
     inkscape:pageshadow="2"
     inkscape:zoom="11.2"
     inkscape:cx="20.689455"
     inkscape:cy="29.947873"
     inkscape:document-units="mm"
     inkscape:current-layer="g40"
     inkscape:document-rotation="0"
     showgrid="false"
     inkscape:pagecheckerboard="true"
     inkscape:window-width="1920"
     inkscape:window-height="976"
     inkscape:window-x="1912"
     inkscape:window-y="-8"
     inkscape:window-maximized="1" />
  <metadata
     id="metadata64">
    <rdf:RDF>
      <cc:Work
         rdf:about="">
        <dc:format>image/svg+xml</dc:format>
        <dc:type
           rdf:resource="http://purl.org/dc/dcmitype/StillImage" />
        <dc:title></dc:title>
        <cc:license
           rdf:resource="http://creativecommons.org/publicdomain/zero/1.0/" />
      </cc:Work>
      <cc:License
         rdf:about="http://creativecommons.org/publicdomain/zero/1.0/">
        <cc:permits
           rdf:resource="http://creativecommons.org/ns#Reproduction" />
        <cc:permits
           rdf:resource="http://creativecommons.org/ns#Distribution" />
        <cc:permits
           rdf:resource="http://creativecommons.org/ns#DerivativeWorks" />
      </cc:License>
    </rdf:RDF>
  </metadata>
  <g
     inkscape:label="图层 1"
     inkscape:groupmode="layer"
     id="layer1"
     transform="translate(-113.81959,-34.182924)">
    <g
       transform="matrix(0.26458333,0,0,0.26458333,107.99611,30.902091)"
       id="g40"
       inkscape:label="Speaker Mute RtL">
      <path
         d="m 47,12.4 a 1.5,1.5 0 0 0 -1.35,0.96 l -19,47.1 a 1.5,1.5 0 1 0 2.78,1.12 l 19,-47.1 a 1.5,1.5 0 0 0 -1.44,-2.07 z"
         style="opacity:0.5;fill:#ffffff"
         id="path36"
         inkscape:connector-curvature="0" />
      <path
         d="m 38.5,27.2 -0.21,0.18 h -12.7 c -1,0 -1.83,0.5 -2.46,1.12 a 3.48,3.48 0 0 0 -1.12,2.46 v 13.1 c 0,1.01 0.5,1.84 1.12,2.47 a 3.47,3.47 0 0 0 2.46,1.11 h 4.63 z M 51.8,16 a 1.2,1.2 0 0 0 -0.75,0.3 l -2.64,2.27 -11.7,29.1 h 1.59 l 12.8,11.1 a 1.2,1.2 0 0 0 1.97,-0.9 v -40.6 a 1.2,1.2 0 0 0 -1.23,-1.19 z"
         id="path38"
         inkscape:connector-curvature="0"
         style="fill:#ffffff" />
    </g>
  </g>
</svg>
