<?xml version="1.0" encoding="UTF-8" standalone="no"?>
<!-- Created with Inkscape (http://www.inkscape.org/) -->

<svg
   id="svg3117"
   sodipodi:docname="icon_ManualMaximize.svg"
   viewBox="0 0 335.11738 335.11737"
   version="1.1"
   inkscape:version="1.1 (c68e22c387, 2021-05-23)"
   width="335.11737"
   height="335.11737"
   xmlns:inkscape="http://www.inkscape.org/namespaces/inkscape"
   xmlns:sodipodi="http://sodipodi.sourceforge.net/DTD/sodipodi-0.dtd"
   xmlns="http://www.w3.org/2000/svg"
   xmlns:svg="http://www.w3.org/2000/svg"
   xmlns:rdf="http://www.w3.org/1999/02/22-rdf-syntax-ns#"
   xmlns:cc="http://creativecommons.org/ns#"
   xmlns:dc="http://purl.org/dc/elements/1.1/">
  <title
     id="title3218">Isometric Arrows</title>
  <defs
     id="defs3119">
    <mask
       id="mask4201-7-1"
       maskUnits="userSpaceOnUse">
      <path
         id="path4203-4-4"
         sodipodi:nodetypes="scccccccsccs"
         style="fill:#ffffff;stroke:#000000;stroke-width:1px"
         inkscape:connector-curvature="0"
         d="m 336.34,581.25 c 1e-5,-7.6231 0,-7.6231 6.2814,-11.435 13.61,-8.2584 40.829,-24.775 40.829,-24.775 l 15.704,9.5289 v -38.116 h -62.815 l 15.704,9.5289 -40.829,24.775 c -6.2815,3.8116 -6.2815,3.8116 -6.2815,11.435 l -4e-5,26.681 31.407,19.058 z" />
    </mask>
    <mask
       id="mask4591-3"
       maskUnits="userSpaceOnUse">
      <path
         id="path4593-8"
         sodipodi:nodetypes="cccccccccc"
         style="fill:#ffffff;stroke:#000000;stroke-width:1px"
         inkscape:connector-curvature="0"
         d="m 460.29,786.61 3.0686,-15.945 12.274,-10.63 -46.029,-26.575 -46.029,26.575 24.549,-10e-6 -9.2058,26.575 v 31.89 h 61.372 z" />
    </mask>
    <mask
       id="mask4591"
       maskUnits="userSpaceOnUse">
      <path
         id="path4593"
         sodipodi:nodetypes="cccccccccc"
         style="fill:#ffffff;stroke:#000000;stroke-width:1px"
         inkscape:connector-curvature="0"
         d="m 460.29,786.61 3.0686,-15.945 12.274,-10.63 -46.029,-26.575 -46.029,26.575 24.549,-10e-6 -9.2058,26.575 v 31.89 h 61.372 z" />
    </mask>
    <mask
       id="mask4201-7"
       maskUnits="userSpaceOnUse">
      <path
         id="path4203-4"
         sodipodi:nodetypes="scccccccsccs"
         style="fill:#ffffff;stroke:#000000;stroke-width:1px"
         inkscape:connector-curvature="0"
         d="m 336.34,581.25 c 1e-5,-7.6231 0,-7.6231 6.2814,-11.435 13.61,-8.2584 40.829,-24.775 40.829,-24.775 l 15.704,9.5289 v -38.116 h -62.815 l 15.704,9.5289 -40.829,24.775 c -6.2815,3.8116 -6.2815,3.8116 -6.2815,11.435 l -4e-5,26.681 31.407,19.058 z" />
    </mask>
    <mask
       id="mask4201"
       maskUnits="userSpaceOnUse">
      <path
         id="path4203"
         sodipodi:nodetypes="scccccccsccs"
         style="fill:#ffffff;stroke:#000000;stroke-width:1px"
         inkscape:connector-curvature="0"
         d="m 336.34,581.25 c 1e-5,-7.6231 0,-7.6231 6.2814,-11.435 13.61,-8.2584 40.829,-24.775 40.829,-24.775 l 15.704,9.5289 v -38.116 h -62.815 l 15.704,9.5289 -40.829,24.775 c -6.2815,3.8116 -6.2815,3.8116 -6.2815,11.435 l -4e-5,26.681 31.407,19.058 z" />
    </mask>
    <mask
       id="mask4201-1"
       maskUnits="userSpaceOnUse">
      <path
         id="path4203-1"
         sodipodi:nodetypes="scccccccsccs"
         style="fill:#ffffff;stroke:#000000;stroke-width:1px"
         inkscape:connector-curvature="0"
         d="m 336.34,581.25 c 1e-5,-7.6231 0,-7.6231 6.2814,-11.435 13.61,-8.2584 40.829,-24.775 40.829,-24.775 l 15.704,9.5289 v -38.116 h -62.815 l 15.704,9.5289 -40.829,24.775 c -6.2815,3.8116 -6.2815,3.8116 -6.2815,11.435 l -4e-5,26.681 31.407,19.058 z" />
    </mask>
  </defs>
  <sodipodi:namedview
     id="base"
     bordercolor="#666666"
     inkscape:pageshadow="2"
     inkscape:window-y="33"
     pagecolor="#ffffff"
     inkscape:window-height="961"
     inkscape:window-maximized="1"
     inkscape:zoom="1.979899"
     inkscape:window-x="1920"
     showgrid="true"
     borderopacity="1.0"
     inkscape:current-layer="layer1"
     inkscape:cx="233.34524"
     inkscape:cy="171.97847"
     width="335.11737px"
     inkscape:snap-grids="true"
     inkscape:window-width="1920"
     inkscape:pageopacity="0.0"
     inkscape:document-units="px"
     inkscape:pagecheckerboard="0"
     inkscape:snap-page="true"
     inkscape:snap-object-midpoints="false"
     inkscape:snap-center="true"
     inkscape:object-nodes="false"
     inkscape:snap-others="false"
     inkscape:snap-nodes="false"
     inkscape:snap-bbox="false"
     inkscape:snap-bbox-midpoints="false"
     inkscape:snap-text-baseline="true"
     inkscape:object-paths="false"
     inkscape:snap-intersection-paths="true"
     inkscape:snap-smooth-nodes="false"
     inkscape:snap-midpoints="false"
     inkscape:snap-bbox-edge-midpoints="true"
     inkscape:bbox-nodes="false"
     inkscape:bbox-paths="false"
     inkscape:snap-to-guides="false">
    <inkscape:grid
       type="xygrid"
       id="grid2690"
       spacingx="167.55868"
       spacingy="167.55868" />
  </sodipodi:namedview>
  <g
     id="layer1"
     inkscape:label="Livello 1"
     inkscape:groupmode="layer"
     transform="translate(-481.98219,-499.41129)">
    <path
       id="path4454-6"
       sodipodi:nodetypes="cccccccccc"
       style="fill:#ffffff;fill-opacity:0.852391;stroke:#000000;stroke-width:8.00037;stroke-miterlimit:4;stroke-dasharray:none"
       inkscape:connector-curvature="0"
       d="m 630.55344,589.58238 v -40.7739 h -23.90026 l 42.88769,-43.68711 42.88769,43.68711 H 668.5283 v 40.7739 40.77489 h -37.97586 z" />
    <path
       id="path4454-6-7"
       sodipodi:nodetypes="cccccccccc"
       style="fill:#fffffc;fill-opacity:1;stroke:#000000;stroke-width:8.00123;stroke-miterlimit:4;stroke-dasharray:none"
       inkscape:connector-curvature="0"
       d="m 630.54987,744.35515 v 40.77499 h -23.90476 l 42.89576,43.68828 42.89576,-43.68828 h -23.90476 v -40.77499 -40.77599 h -37.983 z" />
    <path
       id="path4454-6-4"
       sodipodi:nodetypes="cccccccccc"
       style="fill:#ffffff;fill-opacity:1;stroke:#000000;stroke-width:8;stroke-miterlimit:4;stroke-dasharray:none"
       inkscape:connector-curvature="0"
       d="m 726.92208,647.98497 h 40.777 v -23.896 l 43.69,42.881 -43.69,42.881 v -23.896 h -40.777 -40.777 v -37.97 z" />
    <path
       id="path4454-6-4-0"
       sodipodi:nodetypes="cccccccccc"
       style="fill:#ffffff;fill-opacity:0.998911;stroke:#000000;stroke-width:8;stroke-miterlimit:4;stroke-dasharray:none"
       inkscape:connector-curvature="0"
       d="m 572.15966,647.98497 h -40.777 v -23.896 l -43.69,42.881 43.69,42.881 v -23.896 h 40.777 40.777 v -37.97 z" />
  </g>
  <metadata
     id="metadata53">
    <rdf:RDF>
      <cc:Work
         rdf:about="">
        <dc:title>Isometric Arrows</dc:title>
      </cc:Work>
    </rdf:RDF>
  </metadata>
</svg>
