<?xml version="1.0" encoding="UTF-8" standalone="no"?>
<!--part of the matt icon theme by sixsixfive released under CC0 (https://creativecommons.org/publicdomain/zero/1.0/) on openclipart-->

<svg
   viewBox="0 0 100.25979 79.999794"
   version="1.1"
   id="svg11"
   sodipodi:docname="icon_Shuffle.svg"
   width="100.25979"
   height="79.999794"
   inkscape:version="1.1 (c68e22c387, 2021-05-23)"
   xmlns:inkscape="http://www.inkscape.org/namespaces/inkscape"
   xmlns:sodipodi="http://sodipodi.sourceforge.net/DTD/sodipodi-0.dtd"
   xmlns="http://www.w3.org/2000/svg"
   xmlns:svg="http://www.w3.org/2000/svg">
  <defs
     id="defs15" />
  <sodipodi:namedview
     id="namedview13"
     pagecolor="#000000"
     bordercolor="#666666"
     borderopacity="1.0"
     inkscape:pageshadow="2"
     inkscape:pageopacity="0"
     inkscape:pagecheckerboard="true"
     showgrid="false"
     fit-margin-top="0"
     fit-margin-left="0"
     fit-margin-right="0"
     fit-margin-bottom="0"
     inkscape:zoom="5.703125"
     inkscape:cx="19.638356"
     inkscape:cy="39.890411"
     inkscape:window-width="1920"
     inkscape:window-height="1047"
     inkscape:window-x="0"
     inkscape:window-y="0"
     inkscape:window-maximized="1"
     inkscape:current-layer="svg11" />
  <text
     x="-842.1001"
     y="-482.92999"
     id="0"
     font-size="28px"><tspan
       x="-842.1001"
       y="-482.92999"
       id="5" /></text>
  <text
     x="-842.1001"
     y="-482.92999"
     id="1"
     font-size="28px"><tspan
       x="-842.1001"
       y="-482.92999"
       id="6" /></text>
  <text
     x="1618.5698"
     y="-633.17999"
     id="2"
     font-size="28px"><tspan
       x="1618.5698"
       y="-633.17999"
       id="7" /></text>
  <text
     x="1618.5698"
     y="-633.17999"
     id="3"
     font-size="28px"><tspan
       x="1618.5698"
       y="-633.17999"
       id="8" /></text>
  <path
     d="m 79.722474,5e-6 c -0.22761,0.128324 -0.41998,0.368862 -0.54606,0.682792 -0.17607,0.301261 -0.27251,0.690092 -0.27085,1.092114 v 10.238441 l -16.38177,0.546054 c -1.63191,-7.01e-4 -3.19951,0.636214 -4.36848,1.774923 L 42.046568,30.988965 29.350469,17.746897 C 28.194025,16.474377 26.564845,15.733889 24.845698,15.69939 H 6.279681 0 v 12.695571 h 6.279681 15.972015 l 11.19422,11.604073 -11.19422,11.603668 H 6.279681 0 v 12.559362 h 6.279681 18.566017 c 1.698783,9.04e-4 3.324908,-0.688996 4.504771,-1.911206 l 12.832395,-13.241717 15.97245,16.518076 c 1.14681,1.188706 2.71713,1.875728 4.36848,1.911206 l 16.38177,0.546053 v 10.238697 c -0.0017,0.40203 0.09478,0.79088 0.27085,1.09213 0.07338,0.16019 0.16509,0.29928 0.27085,0.41064 0.08074,0.1104 0.17206,0.2017 0.27085,0.27085 0.04509,0.004 0.09033,0.004 0.13544,0 0.19484,-0.0141 0.38353,-0.10771 0.54605,-0.27085 l 9.556031,-8.327626 c 0.0473,-0.03996 0.0926,-0.08522 0.13544,-0.135434 l 9.55605,-8.463794 c 0.0988,-0.06915 0.19009,-0.160451 0.27085,-0.27085 0.114685,-0.151153 0.206985,-0.33723 0.270825,-0.546054 0.15635,-0.619776 0.0493,-1.320967 -0.270825,-1.77448 -0.12287,-0.132667 -0.26276,-0.224931 -0.41064,-0.270832 l -9.55607,-8.327622 -9.556031,-8.327235 c -0.04284,-0.05022 -0.08811,-0.09547 -0.13543,-0.135434 -0.17903,-0.07068 -0.36705,-0.07068 -0.54608,0 -0.14788,0.04592 -0.28776,0.138183 -0.41063,0.27085 -0.2751,0.32758 -0.42813,0.836385 -0.41064,1.365152 v 10.648194 l -13.51518,-0.27085 -14.60687,-15.153477 14.60687,-15.153034 13.51518,-0.41062 v 10.784439 c -0.01648,0.76973 0.32481,1.452324 0.8191,1.638272 0.23113,0.0685 0.47074,0.02094 0.68235,-0.135434 l 9.556031,-8.327254 9.55603,-8.32753 c 0.559505,-0.286088 0.863395,-1.198373 0.682355,-2.048374 -0.10941,-0.365069 -0.303745,-0.656582 -0.546055,-0.819099 l -9.55603,-8.463868 c -0.0428,-0.05022 -0.0881,-0.09549 -0.13543,-0.135434 L 80.394774,0.281319 c -0.04284,-0.05021 -0.08811,-0.09548 -0.13544,-0.13542 -0.12969,-0.08534 -0.2692,-0.131351 -0.41063,-0.135419 -0.04509,-0.0043 -0.09033,-0.0043 -0.13544,0 L 79.722464,0 Z"
     id="4"
     style="fill:#ffffff;fill-opacity:1" />
</svg>
