<?xml version="1.0" encoding="UTF-8" standalone="no"?>
<svg
   xmlns:dc="http://purl.org/dc/elements/1.1/"
   xmlns:cc="http://creativecommons.org/ns#"
   xmlns:rdf="http://www.w3.org/1999/02/22-rdf-syntax-ns#"
   xmlns:svg="http://www.w3.org/2000/svg"
   xmlns="http://www.w3.org/2000/svg"
   xmlns:sodipodi="http://sodipodi.sourceforge.net/DTD/sodipodi-0.dtd"
   xmlns:inkscape="http://www.inkscape.org/namespaces/inkscape"
   width="11.297526mm"
   height="11.33607mm"
   viewBox="0 0 11.297526 11.33607"
   version="1.1"
   id="svg127"
   inkscape:version="1.0.1 (3bc2e813f5, 2020-09-07)"
   sodipodi:docname="icon_Previous.svg">
  <defs
     id="defs121" />
  <sodipodi:namedview
     id="base"
     pagecolor="#000000"
     bordercolor="#666666"
     borderopacity="1.0"
     inkscape:pageopacity="0"
     inkscape:pageshadow="2"
     inkscape:zoom="15.839192"
     inkscape:cx="22.97671"
     inkscape:cy="20.583349"
     inkscape:document-units="mm"
     inkscape:current-layer="layer1"
     inkscape:document-rotation="0"
     showgrid="false"
     inkscape:pagecheckerboard="true"
     inkscape:window-width="1920"
     inkscape:window-height="976"
     inkscape:window-x="1912"
     inkscape:window-y="-8"
     inkscape:window-maximized="1" />
  <metadata
     id="metadata124">
    <rdf:RDF>
      <cc:Work
         rdf:about="">
        <dc:format>image/svg+xml</dc:format>
        <dc:type
           rdf:resource="http://purl.org/dc/dcmitype/StillImage" />
        <dc:title></dc:title>
        <cc:license
           rdf:resource="http://creativecommons.org/publicdomain/zero/1.0/" />
      </cc:Work>
      <cc:License
         rdf:about="http://creativecommons.org/publicdomain/zero/1.0/">
        <cc:permits
           rdf:resource="http://creativecommons.org/ns#Reproduction" />
        <cc:permits
           rdf:resource="http://creativecommons.org/ns#Distribution" />
        <cc:permits
           rdf:resource="http://creativecommons.org/ns#DerivativeWorks" />
      </cc:License>
    </rdf:RDF>
  </metadata>
  <g
     inkscape:label="图层 1"
     inkscape:groupmode="layer"
     id="layer1"
     transform="translate(-108.50004,-78.998583)">
    <path
       d="m 109.17217,79.020539 a 0.66145833,0.66145833 0 0 1 0.65088,0.672042 v 4.021666 l -0.508,0.447146 -5.3e-4,5.29e-4 c -0.30956,0.272521 -0.30956,0.769938 5.3e-4,1.042459 l 0.508,0.447146 v 4.021666 a 0.66146,0.66146 0 1 1 -1.32292,0 v -9.974791 a 0.66145833,0.66145833 0 0 1 0.67204,-0.672042 z m 6.6675,0.0036 c 0.16748,-0.0049 0.30692,0.129381 0.30692,0.296333 v 2.029354 l -3.175,2.804584 c -0.30956,0.272521 -0.30956,0.769937 0,1.042458 l 3.175,2.804583 v 2.029354 c 2.6e-4,0.256382 -0.30163,0.39423 -0.49477,0.223838 L 109.5664,84.91006 c -0.13467,-0.118534 -0.13467,-0.328084 0,-0.447146 l 6.08542,-5.344583 c 0.0521,-0.04577 0.1188,-0.07197 0.18812,-0.07382 z m 3.65125,2.35e-4 c -0.0693,0.0019 -0.13599,0.02805 -0.18812,0.07382 l -6.08541,5.344583 c -0.13468,0.118534 -0.13468,0.328084 0,0.447146 l 6.08541,5.344583 c 0.19236,0.169598 0.49477,0.03281 0.49477,-0.223837 V 79.295068 c -2.3e-4,-0.167746 -0.1389,-0.301625 -0.30691,-0.296333 z"
       id="path58"
       inkscape:label="Skip Back"
       style="stroke-width:0.264583;fill:#ffffff" />
  </g>
</svg>
