<?xml version="1.0" encoding="UTF-8" standalone="no"?>
<svg
   xmlns:dc="http://purl.org/dc/elements/1.1/"
   xmlns:cc="http://creativecommons.org/ns#"
   xmlns:rdf="http://www.w3.org/1999/02/22-rdf-syntax-ns#"
   xmlns:svg="http://www.w3.org/2000/svg"
   xmlns="http://www.w3.org/2000/svg"
   xmlns:xlink="http://www.w3.org/1999/xlink"
   version="1.1"
   id="svg4349"
   viewBox="0 0 471.42848 471.42847"
   height="133.04759mm"
   width="133.04759mm">
  <defs
     id="defs4351">
    <linearGradient
       gradientUnits="userSpaceOnUse"
       y2="683.94354"
       x2="373.05899"
       y1="513.73285"
       x1="244.91409"
       id="linearGradient7103"
       xlink:href="#linearGradient5147"
       gradientTransform="matrix(0.46067987,0,0,0.46067987,17.535418,355.93672)" />
    <linearGradient
       id="linearGradient5147">
      <stop
         id="stop5149"
         offset="0"
         style="stop-color:#000000;stop-opacity:1;" />
      <stop
         id="stop5151"
         offset="1"
         style="stop-color:#000000;stop-opacity:0;" />
    </linearGradient>
  </defs>
  <metadata
     id="metadata4354">
    <rdf:RDF>
      <cc:Work
         rdf:about="">
        <dc:format>image/svg+xml</dc:format>
        <dc:type
           rdf:resource="http://purl.org/dc/dcmitype/StillImage" />
        <dc:title></dc:title>
      </cc:Work>
    </rdf:RDF>
  </metadata>
  <g
     transform="translate(-92.857149,-82.362295)"
     id="layer1">
    <g
       id="g4206"
       transform="matrix(5,0,0,5,-458.21007,-2853.3645)">
      <circle
         style="opacity:1;fill:#ffd740;fill-opacity:1;fill-rule:nonzero;stroke:none;stroke-width:1;stroke-linejoin:round;stroke-miterlimit:4;stroke-dasharray:none;stroke-opacity:1"
         id="circle7844"
         cx="157.35629"
         cy="634.28821"
         r="47.142849" />
      <path
         style="opacity:1;fill:url(#linearGradient7103);fill-opacity:1;fill-rule:nonzero;stroke:none;stroke-width:0.574;stroke-linejoin:round;stroke-miterlimit:4;stroke-dasharray:none;stroke-opacity:1"
         d="m 203.31017,645.51643 c -4.61533,-5.51248 -27.30683,-36.31054 -31.79521,-41.84461 l -27.68217,8.15727 0.93035,33.07538 c -1.00201,-0.54428 -2.12859,-1.07802 -3.26885,-1.48372 -0.57013,-0.20284 -1.1437,-0.37351 -1.70685,-0.49757 -0.56315,-0.12405 -1.1154,-0.2019 -1.64387,-0.21774 -0.52848,-0.0159 -1.0329,0.0303 -1.49901,0.15206 -0.46611,0.12181 -0.89353,0.31936 -1.26957,0.60824 -0.37604,0.28889 -0.70086,0.66901 -0.95915,1.1544 -0.25828,0.48539 -0.80756,1.52294 -0.92039,2.23426 l 30.38693,34.16318 c 5.73085,-1.15853 11.58303,-2.13571 20.36094,-8.00827 0,0 8.08408,-5.54959 12.98234,-13.53642 3.30953,-4.52237 6.08451,-13.95646 6.08451,-13.95646 z m -33.89166,-11.6008 0,4.92622 c -0.40697,-0.21185 -0.82739,-0.38429 -1.25697,-0.51647 -0.42959,-0.13218 -0.86812,-0.22475 -1.31006,-0.27802 -0.44194,-0.0533 -0.8876,-0.0671 -1.33165,-0.0423 -0.44405,0.0249 -0.88675,0.0885 -1.32265,0.19075 -0.43591,0.10223 -0.86556,0.24316 -1.28307,0.42199 -0.41751,0.17882 -0.82312,0.39586 -1.21198,0.65053 -0.38887,0.25466 -0.76035,0.54664 -1.11032,0.87637 -0.34996,0.32973 -0.67813,0.69728 -0.97894,1.10131 l 0,-4.36116 9.80564,-2.96923 z"
         id="path7093" />
      <path
         id="path4532"
         d="m 171.44615,603.60281 -27.68227,6.71842 0,28.96817 c -0.95289,-0.42879 -2.28651,-0.66731 -3.76349,-0.66731 -0.90525,0 -1.85805,0.18979 -2.90623,0.61859 -0.65511,0.26205 -1.24773,0.5809 -1.76809,0.94493 -0.52037,0.36404 -0.96833,0.77401 -1.3346,1.2177 -0.36627,0.44369 -0.64983,0.92125 -0.84264,1.42226 -0.19281,0.50102 -0.2955,1.02591 -0.2955,1.56191 0,0.50026 0.10763,1.02374 0.29225,1.51805 0.18462,0.49432 0.4469,0.95831 0.7566,1.33947 0.40497,0.45262 0.94033,0.79871 1.5895,1.03098 0.64915,0.23227 1.41217,0.3507 2.26978,0.3507 0.70276,0 1.44686,-0.1279 2.18535,-0.35719 0.7385,-0.2293 1.4707,-0.55944 2.14964,-0.96442 0.67894,-0.40498 1.3057,-0.88383 1.82979,-1.4109 0.52409,-0.52707 0.94537,-1.10272 1.21932,-1.69828 0.38116,-0.8576 0.71601,-2.52529 0.71601,-3.7164 l 0,-23.20278 23.48853,-5.85955 0,21.15381 c -1.14349,-0.47644 -2.57227,-0.71439 -4.04925,-0.71439 -0.90525,0 -2.62057,0.52419 -3.7164,1.09592 -1.02436,0.54792 -1.84688,1.26175 -2.41267,2.07171 -0.28288,0.40498 -0.50129,0.83407 -0.64944,1.27777 -0.14814,0.44369 -0.22567,0.90253 -0.22567,1.36707 0,0.50026 0.10762,1.02374 0.29224,1.51806 0.18463,0.49431 0.44528,0.95992 0.75498,1.34108 0.40497,0.45262 0.92952,0.79709 1.56676,1.02936 0.63725,0.23227 1.38783,0.35232 2.24543,0.35232 1.02436,0 2.07184,-0.22768 3.07834,-0.64456 1.0065,-0.4169 1.97231,-1.02364 2.82991,-1.78596 0.78615,-0.73849 1.38206,-1.58369 1.78109,-2.54254 0.39902,-0.95885 0.60073,-2.03173 0.60073,-3.22283 l 0,-30.11117 z"
         style="opacity:1;fill:#ffffff;fill-opacity:1;fill-rule:nonzero;stroke:none;stroke-width:0.574;stroke-linejoin:round;stroke-miterlimit:4;stroke-dasharray:none;stroke-opacity:1" />
    </g>
  </g>
</svg>
